<?xml version="1.0" encoding="UTF-8"?>
<svg version="1.1" xmlns="http://www.w3.org/2000/svg" width="601" height="547">
<path d="M0 0 C198.33 0 396.66 0 601 0 C601 180.51 601 361.02 601 547 C402.67 547 204.34 547 0 547 C0 366.49 0 185.98 0 0 Z " fill="#FEFEFE" transform="translate(0,0)"/>
<path d="M0 0 C1.20145755 -0.00623996 2.4029151 -0.01247993 3.64078045 -0.01890898 C6.96802333 -0.03209189 10.29436146 -0.02736375 13.62154913 -0.0149641 C17.21262551 -0.00590949 20.80362313 -0.01988535 24.39468384 -0.03088379 C31.42647277 -0.04866928 38.4580909 -0.04482895 45.48988652 -0.03323323 C51.20480962 -0.02419928 56.91968485 -0.02297473 62.63461304 -0.02732849 C63.44802396 -0.02794142 64.26143489 -0.02855436 65.09949464 -0.02918586 C66.75192906 -0.03046476 68.40436347 -0.03176162 70.05679786 -0.03307623 C85.55129661 -0.04448211 101.04570068 -0.03136821 116.5401839 -0.00987476 C129.83486076 0.00799624 143.12939792 0.00489214 156.42407227 -0.0135498 C171.86316255 -0.03495639 187.30216987 -0.04338347 202.74127293 -0.03110075 C204.38762473 -0.02982655 206.03397654 -0.02856907 207.68032837 -0.02732849 C208.49036259 -0.02671139 209.30039681 -0.02609429 210.13497752 -0.02545848 C215.84296548 -0.02200494 221.55090081 -0.02783401 227.25888062 -0.0372467 C234.2151409 -0.04846572 241.17122064 -0.0454288 248.12746024 -0.02412373 C251.67661332 -0.01361186 255.2254654 -0.00949348 258.77461624 -0.02272034 C262.62156148 -0.03684016 266.46801393 -0.01997964 270.31494141 0 C271.43731044 -0.00892289 272.55967947 -0.01784577 273.71605968 -0.02703905 C279.84932918 0.03493138 283.51095539 0.3712497 288.1574707 4.50793457 C290.92370293 7.7837359 292.06148904 9.74008127 292.5949707 14.00793457 C291.94536444 19.2047847 290.49404869 22.30175444 286.5949707 25.82043457 C283.16709914 28.19357642 281.46025076 28.63386021 277.33662796 28.64215565 C275.80002766 28.64884241 275.80002766 28.64884241 274.23238492 28.65566427 C273.09836452 28.6554799 271.96434412 28.65529554 270.79595947 28.65510559 C269.59791962 28.65878228 268.39987978 28.66245897 267.16553569 28.66624707 C263.82956158 28.67538597 260.49363672 28.67998624 257.15765476 28.68263638 C253.56380508 28.68653506 249.96996971 28.6961137 246.37612915 28.70484924 C237.69165678 28.72462624 229.00718321 28.73468152 220.32269394 28.74357703 C216.2350743 28.74795799 212.14745596 28.75332531 208.05983734 28.7585659 C194.47508132 28.77557957 180.89032611 28.79007427 167.30556107 28.79731464 C163.77898406 28.7992246 160.25240706 28.80114493 156.72583008 28.80310059 C155.8492942 28.80358433 154.97275832 28.80406807 154.06966075 28.80456647 C139.86684236 28.81286872 125.66410814 28.83820829 111.46132651 28.87068126 C96.88633257 28.90373412 82.31138144 28.9217618 67.73634982 28.92495888 C59.55028742 28.92712565 51.36434776 28.93589857 43.17832184 28.96142006 C36.20735166 28.98310289 29.23653402 28.99118947 22.26553395 28.98145328 C18.70828941 28.97690146 15.15135974 28.97884542 11.59415817 28.99821472 C7.73827944 29.01902915 3.88283693 29.00888383 0.0269165 28.99568176 C-1.66072976 29.01213563 -1.66072976 29.01213563 -3.38246989 29.0289219 C-9.52203468 28.9780122 -13.17930288 28.63429386 -17.8425293 24.50793457 C-20.73878965 21.21219003 -21.73913227 18.60394302 -22.1550293 14.19543457 C-21.6906903 8.71623435 -19.47136019 5.95804496 -15.43424988 2.36389923 C-10.7414578 -0.63182444 -5.38094846 -0.04277879 0 0 Z " fill="#A22832" transform="translate(155.842529296875,105.4920654296875)"/>
<path d="M0 0 C1.55508516 -0.01265991 1.55508516 -0.01265991 3.14158618 -0.02557558 C4.27396783 -0.01956553 5.40634948 -0.01355549 6.57304573 -0.00736332 C7.78111039 -0.01274886 8.98917506 -0.01813439 10.23384774 -0.02368313 C13.58407477 -0.03551789 16.93380462 -0.03388978 20.28401208 -0.02651632 C23.89829401 -0.02178962 27.51252238 -0.03429012 31.12678719 -0.04453373 C38.20647697 -0.06173735 45.28607806 -0.06255845 52.36578332 -0.05732083 C58.12028568 -0.05328051 63.87476182 -0.05472104 69.62926292 -0.06006908 C70.44807134 -0.06081751 71.26687976 -0.06156593 72.11050055 -0.06233703 C73.77388477 -0.0638685 75.43726898 -0.06540685 77.10065319 -0.066952 C92.70293599 -0.08068289 108.30516867 -0.07523539 123.90745033 -0.06376678 C138.1805438 -0.05383553 152.45350761 -0.06677215 166.72658108 -0.09070098 C181.3819175 -0.11508554 196.03719352 -0.12470133 210.69254982 -0.11804825 C218.92050326 -0.11455437 227.14835699 -0.1167991 235.37629509 -0.13429928 C242.38121678 -0.14901331 249.38596856 -0.14966733 256.39088689 -0.13222837 C259.96446548 -0.12370897 263.53774047 -0.12159133 267.11130333 -0.13687992 C270.98640196 -0.15325319 274.86103088 -0.13859563 278.73613167 -0.12088871 C279.86405187 -0.13049372 280.99197208 -0.14009872 282.15407169 -0.14999479 C288.58745029 -0.08939715 292.55339858 0.53554348 297.78157234 4.38031673 C300.75059948 7.82821922 301.26819017 10.84827236 301.06282234 15.39203548 C300.43360517 19.84025133 298.70417811 22.54649399 295.41403389 25.52002525 C290.66355383 28.5316632 285.22433714 27.93435559 279.78718758 27.89498043 C277.96049994 27.90539872 277.96049994 27.90539872 276.09690952 27.91602749 C272.72407283 27.93114642 269.35211883 27.92835373 265.97932196 27.91787446 C262.339158 27.91087977 258.69908405 27.92688233 255.05894661 27.93987179 C247.93091265 27.96151208 240.80303833 27.96138494 233.67498231 27.95324624 C227.88187318 27.94694634 222.08881061 27.94808318 216.29570198 27.95451832 C215.47118961 27.95541997 214.64667724 27.95632163 213.79717964 27.95725061 C212.12219722 27.9591018 210.44721481 27.96096437 208.77223241 27.96283817 C193.06599816 27.97941653 177.35985375 27.97069691 161.65362489 27.95385259 C147.28289277 27.93915339 132.91236968 27.95378701 118.54166448 27.98262275 C103.7857208 28.01201104 89.02987361 28.02299084 74.27390194 28.01344055 C72.60508221 28.012418 70.93626247 28.01142339 69.2674427 28.01045704 C68.44635204 28.00998065 67.62526138 28.00950426 66.77928919 28.00901343 C60.99313764 28.00684867 55.20707741 28.01665659 49.42094612 28.03122807 C42.36950625 28.04873833 35.31833297 28.0486529 28.26690364 28.02587641 C24.6690819 28.01472248 21.07173007 28.01159706 17.47392845 28.03017712 C13.57435809 28.05005655 9.6755246 28.0312232 5.77595711 28.00850582 C4.63802428 28.02034155 3.50009146 28.03217728 2.32767582 28.04437166 C-6.2063503 27.94305254 -6.2063503 27.94305254 -9.88213921 24.98558617 C-13.73574678 20.68830601 -14.69980191 17.20137369 -14.53483391 11.37250423 C-13.99637238 7.98219088 -12.42143581 5.94056945 -10.21842766 3.38031673 C-6.69875193 0.88415634 -4.29969842 0.00495246 0 0 Z " fill="#B73929" transform="translate(192.21842765808105,212.61968326568604)"/>
<path d="M0 0 C1.03883249 -0.00843994 2.07766497 -0.01687988 3.14797723 -0.02557558 C4.28784479 -0.01956553 5.42771235 -0.01355549 6.60212135 -0.00736332 C7.81412071 -0.01274886 9.02612006 -0.01813439 10.27484667 -0.02368313 C13.64066407 -0.03553082 17.00598751 -0.03388367 20.37178564 -0.02651632 C24.00106274 -0.02179445 27.63028625 -0.03428583 31.25954628 -0.04453373 C38.37045363 -0.06174693 45.48127272 -0.06255646 52.5921955 -0.05732083 C58.37152057 -0.05328225 64.15081953 -0.05471896 69.93014336 -0.06006908 C70.75215135 -0.06081751 71.57415934 -0.06156593 72.42107666 -0.06233703 C74.09090515 -0.06386848 75.76073362 -0.06540683 77.43056209 -0.066952 C93.09719066 -0.08068638 108.76376932 -0.07523297 124.43039675 -0.06376678 C138.76566114 -0.05383537 153.10079645 -0.06677179 167.43604092 -0.09070098 C182.15123146 -0.11507951 196.86636184 -0.1247028 211.58157218 -0.11804825 C219.84471999 -0.114553 228.10776854 -0.11680811 236.37090111 -0.13429928 C243.40588559 -0.14900579 250.4407009 -0.14967721 257.47568201 -0.13222837 C261.06533143 -0.12370271 264.65467846 -0.12160653 268.24431229 -0.13687992 C272.1351406 -0.15322991 276.02549993 -0.13860993 279.91633034 -0.12088871 C281.61943951 -0.13529622 281.61943951 -0.13529622 283.35695493 -0.14999479 C289.51245398 -0.09213169 293.2199545 0.22572027 297.88620949 4.38031673 C300.75428655 7.82200921 301.42924966 10.82789277 301.23386574 15.32172298 C300.59613735 19.09793492 299.19041634 21.2878286 296.88620949 24.38031673 C291.29390136 28.27367356 285.55240311 27.80293178 279.00571632 27.76799679 C277.80017522 27.77338233 276.59463412 27.77876786 275.35256147 27.7843166 C272.01406376 27.7961383 268.67606591 27.79452948 265.33758807 27.78714979 C261.73424958 27.7824183 258.13096455 27.79492771 254.5276432 27.8051672 C247.471821 27.8223603 240.41608783 27.82319425 233.36025012 27.81795429 C227.62578594 27.8139127 221.89134807 27.81535601 216.15688515 27.82070255 C215.34069886 27.82145097 214.52451257 27.8221994 213.68359336 27.8229705 C212.02552195 27.82450197 210.36745054 27.82604032 208.70937914 27.82758547 C193.16196484 27.84131208 177.61460087 27.83587144 162.06718773 27.82440025 C147.84198108 27.81446526 133.61690445 27.82741284 119.39171785 27.85133445 C104.78494509 27.87571272 90.17823292 27.8853366 75.57144022 27.87868172 C67.37092018 27.87518698 59.17050017 27.87743847 50.9699955 27.89493275 C43.98995575 27.90963874 37.0100865 27.91031114 30.03005016 27.89286184 C26.46873972 27.88433657 22.90773407 27.88223914 19.34643936 27.89751339 C15.48637027 27.91386421 11.62677385 27.89924299 7.76670265 27.88152218 C6.07731268 27.89592969 6.07731268 27.89592969 4.35379362 27.91062826 C-1.76882031 27.85261866 -5.49202545 27.54644219 -10.11379051 23.38031673 C-13.16069222 18.91152757 -14.07384888 14.66591278 -13.11379051 9.38031673 C-9.98691837 3.46159447 -6.84714349 0.00785185 0 0 Z " fill="#AC2E2B" transform="translate(174.11379051208496,159.61968326568604)"/>
<path d="M0 0 C1.02577455 -0.00445784 2.05154911 -0.00891569 3.10840774 -0.01350862 C4.23883317 -0.01332426 5.36925861 -0.01313989 6.53393936 -0.01294994 C8.33122242 -0.01846498 8.33122242 -0.01846498 10.16481423 -0.02409142 C13.49659839 -0.03322042 16.82833327 -0.03782842 20.16012526 -0.04048073 C23.75124979 -0.04438336 27.34236006 -0.05396168 30.93347549 -0.0626936 C39.60863668 -0.08245855 48.28379903 -0.09252397 56.9589771 -0.10142139 C61.04347712 -0.10580398 65.12797583 -0.11117084 69.21247482 -0.11641026 C82.78869101 -0.1334221 96.36490638 -0.14791675 109.94113159 -0.155159 C113.46443813 -0.15706891 116.98774466 -0.15898924 120.51105118 -0.16094494 C121.82461328 -0.16167055 121.82461328 -0.16167055 123.16471198 -0.16241082 C137.35385822 -0.17071295 151.54292021 -0.19605314 165.73202965 -0.22852562 C180.29688996 -0.26158653 194.86170743 -0.27960685 209.42660546 -0.28280324 C217.60541906 -0.28496917 225.78410976 -0.29372996 233.96288681 -0.31926441 C240.92758257 -0.34095816 247.89212559 -0.34902838 254.85685131 -0.33929763 C258.41017634 -0.33474911 261.96318614 -0.33667077 265.51646805 -0.35605907 C269.36975379 -0.37690271 273.222604 -0.36671767 277.07593155 -0.35352612 C278.1974341 -0.36449536 279.31893665 -0.37546461 280.47442412 -0.38676625 C286.8986895 -0.33356645 290.83201107 0.30830269 296.05890274 4.13422108 C299.44029011 7.84283948 299.68155639 11.77351044 299.55109024 16.62250233 C298.73259285 20.79943744 296.34051479 23.52330346 293.05890274 26.13422108 C290.09429495 27.12242367 288.16066763 27.26320769 285.06816006 27.27123547 C283.5128979 27.27884728 283.5128979 27.27884728 281.9262163 27.28661287 C280.7834359 27.28711063 279.6406555 27.28760838 278.46324539 27.28812122 C276.646528 27.2946946 276.646528 27.2946946 274.79310924 27.30140078 C271.4251919 27.31247103 268.05732104 27.31901494 264.68939221 27.32358193 C261.05942986 27.32953748 257.42948464 27.3411473 253.79953384 27.35187244 C245.03094381 27.37639528 236.2623481 27.39102225 227.49373433 27.40393251 C225.01774184 27.40764416 222.54174992 27.4116174 220.06575799 27.41568518 C204.69431348 27.44091846 189.32286808 27.46297424 173.95140743 27.47541332 C170.39096638 27.47834307 166.83052536 27.48130473 163.27008438 27.48431873 C161.94267105 27.48543781 161.94267105 27.48543781 160.58844129 27.48657949 C146.24663589 27.49923846 131.90495431 27.53246913 117.56320681 27.57412057 C102.8435405 27.61651973 88.12393762 27.6401059 73.40421039 27.64533389 C65.13764783 27.64875001 56.87127889 27.66052899 48.60477638 27.69343662 C41.56610472 27.72141045 34.52766636 27.73244822 27.48894342 27.72124116 C23.89719518 27.71604782 20.30593571 27.71898415 16.71425819 27.7437067 C12.82114287 27.77028074 8.92869697 27.75816182 5.03551102 27.74222279 C3.89942278 27.75610487 2.76333454 27.76998696 1.59281939 27.78428972 C-6.92820611 27.69805747 -6.92820611 27.69805747 -10.60369778 24.74465847 C-13.95809171 20.99842878 -14.8086687 18.61742091 -15.25359726 13.63422108 C-14.7533226 8.03114493 -12.10025862 4.77348727 -7.94109726 1.13422108 C-4.98892015 0.15016204 -3.07755194 0.00619749 0 0 Z " fill="#981E32" transform="translate(115.94109725952148,52.86577892303467)"/>
<path d="M0 0 C1.34327185 -0.00668677 1.34327185 -0.00668677 2.71368051 -0.01350862 C3.70373582 -0.01332426 4.69379113 -0.01313989 5.71384811 -0.01294994 C7.28427073 -0.01846498 7.28427073 -0.01846498 8.88641906 -0.02409142 C12.4178285 -0.03516278 15.94920855 -0.03897793 19.48063278 -0.04278088 C22.00318115 -0.04904289 24.52572858 -0.05568945 27.04827499 -0.0626936 C34.63522369 -0.08194667 42.22216723 -0.09252558 49.80913413 -0.10142139 C53.38072333 -0.10580293 56.95231105 -0.1111701 60.52389908 -0.11641026 C72.39469851 -0.13342378 84.26549701 -0.14791822 96.13630676 -0.155159 C99.21771623 -0.15706894 102.29912569 -0.15898926 105.38053513 -0.16094494 C106.52935982 -0.16167055 106.52935982 -0.16167055 107.7013931 -0.16241082 C120.10975624 -0.1707121 132.51802301 -0.19605009 144.92634407 -0.22852562 C157.66167806 -0.26158563 170.39696306 -0.27960681 183.13234019 -0.28280324 C190.28442022 -0.28496937 197.43635973 -0.29373288 204.58839798 -0.31926441 C211.31560449 -0.34322365 218.04251419 -0.34680376 224.76976967 -0.33650303 C227.24092257 -0.33600603 229.71208768 -0.3423745 232.18320274 -0.35605907 C235.55318051 -0.37367933 238.9222398 -0.36671968 242.29221725 -0.35352612 C243.27334968 -0.36449536 244.2544821 -0.37546461 245.26534581 -0.38676625 C250.94143834 -0.33300371 254.28438968 0.28755591 258.75699997 4.13422108 C261.5232322 7.4100224 262.66101831 9.36636777 263.19449997 13.63422108 C262.54844713 18.80264378 261.08891025 21.90220407 257.25699997 25.44672108 C253.88978176 27.71959337 251.37395006 28.25926569 247.40656948 28.26844215 C246.06553615 28.27512892 246.06553615 28.27512892 244.69741124 28.28195077 C243.22253396 28.28167423 243.22253396 28.28167423 241.71786118 28.2813921 C240.67414189 28.28506879 239.63042261 28.28874547 238.55507547 28.29253358 C235.04059161 28.30358984 231.5261373 28.30741753 228.01163864 28.31122303 C225.49879487 28.31748612 222.98595202 28.32413278 220.4731102 28.33113575 C212.92069147 28.35037553 205.36827792 28.36096503 197.81584093 28.36986354 C194.25969494 28.37424676 190.70355044 28.37961343 187.14740562 28.38485241 C175.32717797 28.40186307 163.50695124 28.41635794 151.68671322 28.42360115 C148.61956595 28.42551105 145.55241869 28.42743139 142.48527145 28.42938709 C141.34178093 28.4301127 141.34178093 28.4301127 140.17518959 28.43085297 C127.82185532 28.43915596 115.46861779 28.46449811 103.11532577 28.49696777 C90.43420071 28.53002761 77.75312484 28.54804888 65.07195646 28.55124539 C57.95119019 28.55341134 50.83056507 28.5621724 43.70984077 28.58770657 C37.01298934 28.61166533 30.31643607 28.61524607 23.61953545 28.60494518 C21.15966955 28.60444819 18.69979141 28.61081635 16.23996353 28.62450123 C12.8853646 28.64212203 9.53168831 28.63516162 6.17708969 28.62196827 C5.20053034 28.63293752 4.22397098 28.64390676 3.21781892 28.65520841 C-3.711586 28.5892764 -6.96263002 27.18835867 -12.05550003 22.44672108 C-13.92727142 18.80169259 -14.35643629 15.21083658 -14.24300003 11.13422108 C-11.95286528 4.39104653 -7.17263815 0.01651716 0 0 Z " fill="#C3482C" transform="translate(186.24300003051758,265.86577892303467)"/>
<path d="M0 0 C1.35859939 -0.00807831 1.35859939 -0.00807831 2.74464524 -0.01631981 C5.7862912 -0.0306524 8.82750521 -0.02348254 11.86917114 -0.01637268 C14.04719392 -0.02207351 16.22521371 -0.02903665 18.40322876 -0.03717041 C24.32473641 -0.05514965 30.24609627 -0.05392434 36.16762304 -0.04822803 C41.10810167 -0.04514274 46.04855163 -0.05122134 50.98902619 -0.05726677 C63.31018557 -0.0721307 75.63126395 -0.06848537 87.95242323 -0.05640347 C99.31447523 -0.045857 110.67631479 -0.06244028 122.03834045 -0.08776134 C132.3603138 -0.10990452 142.68221708 -0.11655875 153.0042125 -0.11068493 C159.17145062 -0.10731055 165.33854582 -0.10976233 171.50576401 -0.12693596 C177.30555235 -0.14238063 183.10500999 -0.13847681 188.90478516 -0.11963081 C191.03406841 -0.11593795 193.16337603 -0.11907361 195.29263687 -0.1295166 C198.19840422 -0.14268035 201.10306939 -0.13121957 204.00878906 -0.11352539 C204.85237406 -0.1231304 205.69595905 -0.1327354 206.56510723 -0.14263147 C211.88952583 -0.07587644 214.89308606 0.87777115 219.13137817 4.38768005 C221.99945523 7.82937253 222.67441835 10.83525609 222.47903442 15.3290863 C221.84130603 19.10529824 220.43558502 21.29519192 218.13137817 24.38768005 C213.09753281 27.65087033 208.89154805 27.81708687 203.09817505 27.77536011 C202.19890038 27.78074565 201.2996257 27.78613118 200.37310028 27.79167992 C197.36530297 27.80596654 194.35794531 27.798854 191.35012817 27.79173279 C189.19151455 27.79743593 187.03290394 27.80439997 184.8742981 27.81253052 C179.01488982 27.83048186 173.15563114 27.82928994 167.29620361 27.82358813 C162.40533111 27.82049956 157.51448748 27.82658496 152.62361908 27.83262688 C141.08711855 27.84667661 129.55069207 27.84510668 118.01419067 27.83372498 C106.10917562 27.82223932 94.20438572 27.83632607 82.29940033 27.86312145 C72.07929649 27.885264 61.8592634 27.89191919 51.63913727 27.88604504 C45.53452666 27.8826713 39.43006043 27.8851185 33.32546997 27.90229607 C27.58639132 27.91774029 21.84764687 27.91383746 16.10858154 27.89499092 C14.0018724 27.89129827 11.89513864 27.8944331 9.78845215 27.90487671 C6.91344122 27.91804161 4.03954406 27.90657885 1.1645813 27.8888855 C-0.08707699 27.90329301 -0.08707699 27.90329301 -1.3640213 27.91799158 C-6.65421514 27.85096349 -9.6765618 26.90302496 -13.86862183 23.38768005 C-16.91552353 18.91889088 -17.82868019 14.6732761 -16.86862183 9.38768005 C-12.66268111 1.42643513 -8.71161823 -0.06173863 0 0 Z " fill="#CD5229" transform="translate(173.86862182617188,319.61231994628906)"/>
<path d="M0 0 C0.7507068 -0.00538554 1.5014136 -0.01077108 2.27486908 -0.01631981 C4.78596289 -0.03060726 7.29653013 -0.02349386 9.80764771 -0.01637268 C11.60981673 -0.02207589 13.41198214 -0.02903996 15.21414185 -0.03717041 C20.10677375 -0.05512361 24.99922651 -0.05392921 29.89188147 -0.04822803 C33.97736533 -0.0451389 38.06281466 -0.05122565 42.14829361 -0.05726677 C51.78770386 -0.07131787 61.42702549 -0.0697462 71.06643677 -0.05836487 C81.00772322 -0.0468864 90.94873981 -0.06095346 100.88999069 -0.08776134 C109.42772918 -0.10992167 117.96538299 -0.11655486 126.5031482 -0.11068493 C131.60121313 -0.10731455 136.69910512 -0.10973572 141.79714584 -0.12693596 C146.59234473 -0.14240796 151.38714415 -0.13844665 156.18232727 -0.11963081 C157.94030303 -0.11594546 159.69830839 -0.11905184 161.45625687 -0.1295166 C163.86029447 -0.1427326 166.26301086 -0.13117479 168.66699219 -0.11352539 C169.70519318 -0.1279329 169.70519318 -0.1279329 170.76436794 -0.14263147 C176.12230339 -0.06195573 179.12296135 1.46836806 183.46047974 4.38768005 C186.42950688 7.83558254 186.94709756 10.85563568 186.74172974 15.3993988 C186.09356128 19.98158969 184.3763994 22.64343827 180.82719421 25.52738857 C176.97305633 27.65700779 174.00254079 27.95262884 169.7180481 27.90234375 C168.57739726 27.91276204 168.57739726 27.91276204 167.41370296 27.92339081 C164.87560802 27.94162994 162.33845107 27.9314056 159.80032349 27.92112732 C157.97667747 27.92818732 156.15303732 27.93693268 154.32940674 27.94723511 C149.38313982 27.96972831 144.43719289 27.96678972 139.49089432 27.95791364 C135.36052117 27.9528025 131.23020808 27.96009724 127.09984112 27.96738571 C117.35639378 27.98438411 107.61310306 27.98081897 97.86965942 27.96409607 C87.81864234 27.94716837 77.76805934 27.9630184 67.71708965 27.99531895 C59.08506653 28.02200824 50.4531786 28.02929282 41.82111835 28.02080387 C36.6666176 28.01587352 31.51237814 28.0180964 26.35791016 28.03859138 C21.51173189 28.05693847 16.66617865 28.05100167 11.82003403 28.02639198 C10.0422891 28.0213813 8.26449662 28.02488054 6.4867897 28.03754044 C4.05811146 28.05346716 1.63149254 28.03852633 -0.79708862 28.01586914 C-1.85030855 28.03362273 -1.85030855 28.03362273 -2.92480564 28.05173498 C-8.49037425 27.94637052 -10.75671165 26.17519009 -14.53952026 22.38768005 C-16.92915438 18.36874995 -17.26691624 13.96758065 -16.53952026 9.38768005 C-12.73769082 1.92482967 -8.08826239 -0.06978344 0 0 Z " fill="#D85F2A" transform="translate(151.53952026367188,372.61231994628906)"/>
<path d="M0 0 C1.20005173 -0.00852997 2.40010345 -0.01705994 3.63652039 -0.02584839 C4.94986862 -0.02494202 6.26321686 -0.02403564 7.61636353 -0.02310181 C9.01607115 -0.0290874 10.41577548 -0.03589302 11.81547546 -0.04345703 C15.61512473 -0.06112119 19.4146839 -0.06581258 23.21437025 -0.0670886 C25.58906586 -0.06851053 27.96373858 -0.0727809 30.3384285 -0.07808304 C38.62526147 -0.09658468 46.91203011 -0.10475348 55.19888306 -0.10317993 C62.91972595 -0.10197849 70.6402893 -0.12308092 78.36106145 -0.15466726 C84.99304149 -0.18083101 91.62493022 -0.19154719 98.25696146 -0.19026911 C102.21653675 -0.1897595 106.17586361 -0.19544179 110.13538742 -0.21662521 C113.86029588 -0.2360095 117.58471898 -0.23613121 121.3096447 -0.22159195 C123.32427702 -0.21850861 125.33890939 -0.23517896 127.35346985 -0.25247192 C138.38922737 -0.17568717 138.38922737 -0.17568717 143.13052368 4.26742554 C145.89675591 7.54322686 147.03454202 9.49957223 147.56802368 13.76742554 C146.91841742 18.96427567 145.46710166 22.06124541 141.56802368 25.57992554 C137.87928926 28.13366475 135.97010494 28.39632078 131.5015564 28.41459656 C130.304254 28.42175186 129.1069516 28.42890717 127.87336731 28.4362793 C126.53949001 28.43911969 125.20561242 28.4418314 123.87173462 28.44442749 C122.47232392 28.45069137 121.07291489 28.45733811 119.67350769 28.46434021 C115.86549926 28.48175815 112.05750339 28.49230438 108.24946499 28.50054574 C105.87043222 28.50569481 103.49140336 28.51177062 101.11237335 28.51805687 C93.66930358 28.53711221 86.22624374 28.55134193 78.78315425 28.55966884 C70.19088103 28.56943992 61.59886552 28.59575444 53.00668311 28.63616973 C46.36626204 28.66633257 39.72591482 28.68113791 33.08542657 28.68444985 C29.11909831 28.68680039 25.15304525 28.69576078 21.18679047 28.72091103 C17.45372265 28.74419961 13.72111107 28.74842211 9.98798943 28.73814964 C7.96855133 28.73741856 5.94913636 28.75650486 3.92979431 28.7762146 C-7.1006917 28.71283975 -7.1006917 28.71283975 -11.86947632 24.26742554 C-15.31144671 20.35070061 -16.33586795 16.64927836 -16.28744507 11.40023804 C-15.51551073 7.46120863 -12.86065327 4.80580965 -9.86947632 2.26742554 C-6.52283762 0.2020053 -3.90163183 0.01253731 0 0 Z " fill="#E46E2F" transform="translate(126.86947631835938,425.7325744628906)"/>
<path d="M0 0 C1.32737434 -0.0098568 1.32737434 -0.0098568 2.68156433 -0.01991272 C5.61363815 -0.03964173 8.54566072 -0.05130847 11.4777832 -0.0612793 C12.48004251 -0.06535482 13.48230183 -0.06943035 14.51493263 -0.07362938 C19.82147643 -0.09449007 25.12799438 -0.10879088 30.43457031 -0.11816406 C35.9077369 -0.12921851 41.38049582 -0.16360746 46.85351849 -0.20333576 C51.06839233 -0.22952109 55.28316942 -0.2378577 59.49811745 -0.24144554 C61.51507121 -0.24630782 63.53202076 -0.25791153 65.54889488 -0.27648354 C68.37797398 -0.30091181 71.20600329 -0.29990299 74.03515625 -0.29296875 C74.86194885 -0.30577881 75.68874146 -0.31858887 76.54058838 -0.33178711 C82.23228314 -0.28116735 86.59294406 0.96683409 91.34106445 4.17700195 C94.43906683 7.58480457 95.25986669 9.53756955 95.84106445 14.11450195 C95.57642601 18.71921087 94.09104457 21.48623916 91.34106445 25.17700195 C86.22898545 28.51840226 81.83987216 28.61168599 75.94262695 28.58105469 C74.55125519 28.59134956 74.55125519 28.59134956 73.1317749 28.60185242 C70.07638085 28.6201013 67.02150113 28.616286 63.96606445 28.6105957 C61.83666823 28.61515801 59.70727347 28.62046374 57.57788086 28.6264801 C53.11932383 28.63540716 48.66094597 28.63299214 44.20239258 28.62304688 C38.49253434 28.61155065 32.78329393 28.63178111 27.07351685 28.66096401 C22.67769451 28.67931946 18.28202047 28.67903495 13.88616943 28.67332649 C11.78105807 28.67317324 9.67593668 28.67922107 7.57086182 28.69161797 C4.62668182 28.70651558 1.68364642 28.69586002 -1.26049805 28.67871094 C-2.12717102 28.68837891 -2.99384399 28.69804687 -3.88677979 28.70800781 C-9.28154599 28.6422943 -12.39264416 27.78682403 -16.65893555 24.17700195 C-19.70583725 19.70821278 -20.61899391 15.462598 -19.65893555 10.17700195 C-14.9541798 1.27157144 -9.52028134 0.03058753 0 0 Z " fill="#EE7B32" transform="translate(99.658935546875,478.822998046875)"/>
</svg>
